<?xml version="1.0" standalone="no"?>
<!DOCTYPE svg PUBLIC "-//W3C//DTD SVG 20010904//EN"
 "http://www.w3.org/TR/2001/REC-SVG-20010904/DTD/svg10.dtd">
<svg version="1.0" xmlns="http://www.w3.org/2000/svg"
 width="260.000000pt" height="260.000000pt" viewBox="0 0 260.000000 260.000000"
 preserveAspectRatio="xMidYMid meet">
<metadata>
Created by potrace 1.14, written by Peter Selinger 2001-2017
</metadata>
<g transform="translate(0.000000,260.000000) scale(0.100000,-0.100000)"
fill="#000000" stroke="none">
<path d="M238 2265 c-34 -14 -67 -56 -73 -90 -2 -16 -3 -421 -2 -900 2 -819 3
-872 20 -896 37 -56 -1 -54 1112 -55 1064 -1 1071 0 1108 38 35 35 36 63 34
953 -2 829 -3 882 -20 906 -37 55 1 54 -1119 54 -649 0 -1046 -4 -1060 -10z
m1956 -692 c0 -252 -3 -458 -7 -458 -4 0 -111 78 -238 174 -197 148 -238 174
-273 178 -29 3 -50 -2 -71 -15 -24 -16 -321 -263 -570 -476 -27 -24 -115 -98
-195 -166 -80 -67 -169 -143 -199 -169 -85 -73 -84 -72 -163 -69 l-72 3 -1
720 c0 396 1 723 3 728 2 4 405 7 895 7 l892 0 -1 -457z m-279 -564 c132 -99
248 -187 259 -194 16 -12 19 -28 20 -126 1 -66 -3 -113 -9 -115 -5 -2 -288 -3
-628 -2 l-618 3 93 77 c51 43 107 90 124 105 17 16 128 109 245 208 118 99
225 190 239 202 14 13 27 23 30 23 3 0 113 -82 245 -181z"/>
<path d="M786 1776 c-109 -40 -165 -168 -117 -271 39 -84 108 -126 198 -120
191 12 256 260 97 367 -51 34 -123 44 -178 24z"/>
</g>
</svg>
